<?xml version="1.0" encoding="UTF-8"?> <svg xmlns="http://www.w3.org/2000/svg" xmlns:xlink="http://www.w3.org/1999/xlink" width="165px" height="38px" viewBox="0 0 165 38"> <!-- Generator: Sketch 51.2 (57519) - http://www.bohemiancoding.com/sketch --> <title>Global / Logo / Logo Inverse</title> <desc>Created with Sketch.</desc> <defs></defs> <g id="Symbols" stroke="none" stroke-width="1" fill="none" fill-rule="evenodd"> <g id="Global-/-Navigation-Who-We-Are" transform="translate(-34.000000, -37.000000)" fill="#FFFFFF"> <g id="Global-/-Logo-/-Logo-Inverse" transform="translate(34.000000, 37.000000)"> <g id="Logo"> <path d="M3.300716,8.3125 C1.3167466,5.60966044 3.00888563,2.29487689 4.81751825,0 C4.11736392,2.65175735 4.87596384,5.9158062 3.300716,8.3125" id="Fill-138"></path> <path d="M3.69896586,15.4375 C1.88995046,12.9073563 -1.1073511,10.3258499 0.419619727,6.91866946 L0.928224696,5.98956636 C0.815329805,6.97003222 0.702049608,8.3125 1.15439978,9.19059213 C2.05910014,10.5837191 2.62473051,12.0299678 3.13372079,13.5268756 C3.24700099,11.6686695 4.03842114,9.96490335 4.8864814,8.3125 L5.39547167,5.9375 C7.43104747,9.39639498 3.86888615,12.1326933 3.69896586,15.4375" id="Fill-140"></path> <path d="M7.06146566,17.1422689 C6.3127046,18.778164 6.52632387,20.9774761 7.16863983,22.5625 C4.86804049,20.8750367 1.81904464,19.2387931 0.802712683,16.5283291 C0.320793443,15.1478356 0,13.511592 0,12.1307502 C0.641951424,13.4607207 1.33748993,14.7899945 2.46063152,15.9659574 C3.85170854,17.1422689 4.65405669,18.7272927 5.61716609,20.210574 C5.40318228,18.9826945 5.08238884,17.5513298 5.45676937,16.2729273 C5.93795953,14.8412142 6.25911751,13.3582813 6.47310132,11.875 C7.00824311,13.4607207 7.48979781,15.3523661 7.06146566,17.1422689" id="Fill-142"></path> <path d="M11.1757315,24.346492 C11.6007925,25.8658324 12.3976912,27.1832613 13.2481752,28.5 C11.1757315,27.2847348 8.5192817,27.2847348 6.6061454,25.7143125 C4.8526785,24.1442354 3.63071881,22.3204747 2.40875912,20.4970592 C3.73716508,21.6115413 5.0123479,22.8778883 6.55328433,23.3845652 C8.20030496,24.1442354 9.58157199,25.4105825 10.9632011,26.6258477 C10.0598561,25.3595006 9.10328791,23.9927156 8.89075744,22.4219482 L8.57214277,17.8125 C9.74124139,19.8385173 11.1225084,21.8648797 11.1757315,24.346492" id="Fill-144"></path> <path d="M54.1970803,25.034427 L53.8413184,25.034427 C53.6388664,24.3277693 53.4353761,23.4203879 52.5719268,23.1677647 C51.5562058,22.9158288 50.3882132,22.9656661 49.2707472,23.0168781 C49.0167304,24.0253088 49.169002,25.2358381 49.1184755,26.3453181 L52.9782152,27.0516321 L51.7084774,28.4137353 C50.9464272,27.9597009 50.0324514,27.808127 49.169002,27.6063721 C49.169002,29.1702302 49.0167304,30.8849749 49.3724923,32.3481274 C49.7279081,32.7512935 50.3882132,32.6004069 50.8959007,32.7014562 C50.9464272,32.7512935 50.8959007,32.9028674 50.8959007,33.0039167 L45.9695675,33.0039167 C45.8678224,32.3983083 46.7312717,32.7512935 47.0870336,32.4491767 C47.5947211,31.9947986 47.3912308,31.1372544 47.4929759,30.4312842 L47.4929759,27.3042553 C44.344068,26.9505828 40.8400902,27.0516321 39.1644102,30.027087 C37.7417087,32.8523428 36.5740622,36.7867348 32.9679933,37.644279 C31.7491282,38.0477888 30.2253737,38.0979697 28.9051095,37.8456902 C30.9870779,37.2912939 33.1711375,36.433406 34.4917478,34.3656762 C36.1172474,31.2881409 38.9609199,28.0098819 42.3638447,26.9505828 C43.9377796,26.4460237 45.6650243,26.1442507 47.4424494,26.2446126 C47.4929759,25.2358381 47.5947211,24.1260144 47.2393053,23.2182893 C46.934762,22.9158288 46.4267285,22.9158288 46.0207862,22.9158288 L46.0207862,22.5625 L53.9430635,22.5625 L54.1970803,25.034427 Z" id="Fill-146"></path> <path d="M16.5051987,27.8820229 C17.278325,29.515385 19.0827549,30.8612963 20.4744526,32.0625 C16.969215,31.8218664 13.1545161,32.3024788 10.3707695,30.4762825 C9.18526223,29.8038179 8.05103915,28.6988677 7.22627737,27.6420441 C10.2678499,29.515385 14.2371038,29.2754062 17.43288,30.8612963 C14.6494847,29.226952 13.3607066,26.4408404 12.5875802,23.75 C14.0825488,24.9512037 15.577166,26.3449143 16.5051987,27.8820229" id="Fill-148"></path> <path d="M25.0090874,32.1641418 C25.8010432,32.7092853 26.6451486,33.2041649 27.7007299,33.1545757 C25.6417169,33.6993818 24.0585247,35.3331255 21.7891148,35.4812183 C19.0974723,35.9268461 16.4586988,35.3331255 14.4525547,33.7486336 C15.7192523,34.1443349 17.3556732,34.1945988 18.7809777,34.0451566 C20.4695482,33.4018468 22.2642163,33.1545757 24.2174913,33.2041649 L25.2730727,33.2534167 C23.3726666,32.5601804 21.3143729,31.8672815 19.889428,30.2338752 C19.2557196,29.1446003 18.2530072,28.1541664 17.1974259,27.3125 C20.3113009,27.8077169 22.6339395,30.0355185 25.0090874,32.1641418" id="Fill-150"></path> <path d="M32.5508879,31.2467259 C33.3599262,31.1499226 34.16862,31.1021794 34.9270073,30.8601711 C32.2473262,32.5515953 30.628905,35.9821869 27.3930961,36.5620191 C25.5724153,37.045048 23.4488619,36.7549672 21.6788321,36.3200108 C24.814028,36.3200108 27.3930961,34.6292451 29.9718197,33.0826966 L32.2979772,32.0198355 C30.7808581,32.2134422 28.7586068,32.4060611 27.4434026,31.6332807 C26.5837132,31.0053761 25.8249814,30.0386598 24.864679,29.7005067 C27.7473088,29.5072293 29.617607,31.5364774 32.5508879,31.2467259" id="Fill-152"></path> <path d="M21.2897315,13.429428 C21.2897315,16.3199155 20.0988184,17.8125 16.911858,17.8125 C13.9092141,17.8125 12.4496848,16.8119206 12.4496848,13.9380023 L12.4496848,10.1419549 C12.4496848,9.63439497 12.4496848,8.4593313 12.2821568,8.03055986 C12.0639061,7.49053779 11.3762914,7.49053779 10.8394161,7.49053779 L10.8394161,7.125 C11.6277619,7.14089295 12.4332535,7.17301699 13.2215993,7.18823364 C14.076742,7.17301699 14.9158106,7.14089295 15.7709533,7.125 L15.7709533,7.49053779 C15.2344352,7.49053779 14.5296748,7.4743067 14.3285698,8.03055986 C14.1774731,8.4593313 14.1774731,9.63439497 14.1774731,10.1419549 L14.1774731,14.0485766 C14.1774731,16.0811832 15.0161845,17.240692 17.3144252,17.240692 C19.6290972,17.240692 20.7864332,16.0974143 20.7864332,13.96945 L20.7864332,10.4915997 C20.7864332,9.93568468 20.7864332,8.71294216 20.6189052,8.22059894 C20.383866,7.55410958 19.7130398,7.49053779 19.0586449,7.49053779 L19.0586449,7.125 C19.7130398,7.14089295 20.3506462,7.17301699 21.0046839,7.18823364 C21.6251446,7.17301699 22.2459625,7.14089295 22.8832117,7.125 L22.8832117,7.49053779 C22.3466936,7.50643074 21.7594527,7.49053779 21.5247707,8.06234576 C21.2897315,8.63347743 21.2897315,9.85621994 21.2897315,10.4915997 L21.2897315,13.429428 Z" id="Fill-154"></path> <path d="M25.9212227,8.4431002 C25.3996819,7.74448681 24.9959892,7.50643074 24.0875912,7.49053779 L24.0875912,7.125 C24.6256093,7.14089295 25.1475083,7.17301699 25.6855264,7.18857179 C26.1228899,7.17301699 26.5770889,7.14089295 27.0140942,7.125 L34.1132819,15.303105 L34.1465946,15.303105 L34.1465946,10.8882471 C34.1465946,10.2055266 34.1465946,9.09471105 33.9954337,8.4431002 C33.7934083,7.55410958 33.3392093,7.61734323 32.4981531,7.49053779 L32.4981531,7.125 C33.1207066,7.14089295 33.7260665,7.17301699 34.34862,7.18857179 C34.9375026,7.17301699 35.5095497,7.14089295 36.1313869,7.125 L36.1313869,7.49053779 C35.5095497,7.55410958 35.071828,7.50643074 34.8533253,8.18915119 C34.6849708,8.69704922 34.6512999,10.3326702 34.6512999,10.96805 L34.6512999,17.8125 L34.1465946,17.8125 C33.7765728,17.3833904 33.4065511,16.938726 33.0365293,16.4943998 L26.4592407,8.96689118 L26.425928,8.96689118 L26.425928,14.3025256 C26.425928,14.8905647 26.425928,16.0811832 26.6781016,16.6212052 C26.9639461,17.240692 27.5191578,17.2089061 28.1413531,17.2721398 L28.1413531,17.6376776 C27.5023223,17.6217846 26.8460979,17.5899987 26.2070672,17.5737676 C25.5845136,17.5899987 24.9623183,17.6217846 24.3397648,17.6376776 L24.3397648,17.2721398 C24.9959892,17.2089061 25.6185427,17.1767821 25.7865391,16.4943998 C25.9212227,15.9225918 25.9212227,14.9220124 25.9212227,14.3025256 L25.9212227,8.4431002 Z" id="Fill-156"></path> <path d="M40.1075,10.1921258 C40.1075,9.6761254 40.1075,8.48117702 39.9444006,8.04527526 C39.7319193,7.4962728 39.0624814,7.4962728 38.540146,7.4962728 L38.540146,7.125 C39.3239969,7.14115724 40.1075,7.1738155 40.8913508,7.1892852 C41.7242359,7.1738155 42.5411239,7.14115724 43.3576642,7.125 L43.3576642,7.4962728 C42.8349811,7.4962728 42.1655432,7.4962728 41.9530619,8.04527526 C41.7896147,8.48117702 41.7896147,9.6761254 41.7896147,10.1921258 L41.7896147,14.7446866 C41.7896147,15.2613746 41.7896147,16.456323 41.9530619,16.891881 C42.1655432,17.4408834 42.8349811,17.4408834 43.3576642,17.4408834 L43.3576642,17.8125 C42.5901581,17.795999 41.7899625,17.7636845 41.0057639,17.7475273 C40.1892236,17.7636845 39.3563385,17.795999 38.540146,17.8125 L38.540146,17.4408834 C39.0624814,17.4408834 39.7319193,17.4408834 39.9444006,16.891881 C40.1075,16.456323 40.1075,15.2613746 40.1075,14.7446866 L40.1075,10.1921258 Z" id="Fill-158"></path> <path d="M55.4014599,9.64338614 L54.9316629,9.64338614 C54.8271812,8.06140238 54.1662051,7.64201512 52.5308078,7.64201512 C51.8868748,7.64201512 50.8427992,7.56123151 50.8427992,8.07790286 L50.8427992,15.7296578 C50.8427992,16.924224 51.0865898,17.3762685 52.7742279,17.4408954 L52.7742279,17.8125 C51.8172203,17.7959995 50.8427992,17.7636861 49.8861622,17.7471856 C48.9639819,17.7636861 48.0592153,17.7959995 47.1192509,17.8125 L47.1192509,17.4408954 C48.8072595,17.3762685 49.0506795,16.924224 49.0506795,15.7296578 L49.0506795,8.07790286 C49.0506795,7.59354495 48.2852217,7.64201512 47.5894183,7.64201512 C45.866953,7.64201512 45.0314702,7.72279873 44.9621863,9.64338614 L44.5620438,9.64338614 L44.5620438,7.125 L55.2447374,7.125 L55.4014599,9.64338614 Z" id="Fill-160"></path> <path d="M58.2784007,10.266354 C58.2784007,9.74877194 58.2784007,8.55016092 58.104392,8.11292307 C57.8776984,7.56258268 57.1634835,7.56258268 56.6058394,7.56258268 L56.6058394,7.125 L65.2654625,7.125 L65.2654625,9.57015269 L64.8643891,9.57015269 C64.5334387,7.67568521 63.6274061,7.56258268 61.7804651,7.56258268 L60.5260441,7.56258268 C60.2648455,7.56258268 60.1427797,7.54603109 60.0908368,7.62706492 C60.0555899,7.69189198 60.0730278,7.87051123 60.0730278,8.22671525 L60.0730278,12.0639257 C62.460175,12.1611663 62.8085634,11.2380703 62.9131913,10.0725624 L63.3138936,10.0725624 C63.2964557,10.8015221 63.2790177,11.5459988 63.2441417,12.2742688 C63.2790177,12.9387462 63.2964557,13.6187407 63.3138936,14.2828733 L62.9131913,14.2828733 C62.6690597,12.5825422 61.7455891,12.5011635 60.0730278,12.5011635 L60.0730278,15.157349 C60.0730278,15.6428623 60.0730278,16.4038907 60.3869113,16.7928531 C60.8399276,17.3594002 61.9199689,17.3914689 62.6167457,17.3752621 C64.4288108,17.3428486 65.6134799,17.1325055 65.8401736,15.2052797 L66.2408759,15.2052797 L66.0843052,17.8125 L56.6058394,17.8125 L56.6058394,17.440434 C57.1634835,17.440434 57.8776984,17.440434 58.104392,16.8897488 C58.2784007,16.452511 58.2784007,15.2542448 58.2784007,14.7359731 L58.2784007,10.266354 Z" id="Fill-162"></path> <path d="M71.8895161,14.9691076 C71.8895161,15.5182302 71.8243682,16.2924312 72.1529096,16.7608005 C72.5311877,17.3092358 73.3704044,17.3738385 73.9952636,17.3738385 C76.873679,17.3738385 77.4330401,15.3405729 77.4330401,12.9519928 C77.4330401,9.75725396 76.495401,7.56248179 72.9756643,7.56248179 C72.7781191,7.56248179 72.1364476,7.53052409 71.9882887,7.67519281 C71.8895161,7.77209679 71.8895161,8.04665808 71.8895161,8.17551977 L71.8895161,14.9691076 Z M70.195321,10.224936 C70.195321,9.70845834 70.195321,8.51468371 70.0475124,8.07895941 C69.8667795,7.5140298 69.1760719,7.53052409 68.649635,7.53052409 L68.649635,7.12641386 C69.3242308,7.14290815 70.0310503,7.17520948 70.7221081,7.19101651 C71.6103609,7.17520948 72.4986137,7.14290815 73.3865162,7.12641386 C76.8575672,7.06215483 79.4890511,9.19232435 79.4890511,12.6939258 C79.4890511,16.1147739 77.2022205,17.8899724 73.8145308,17.8099064 C72.8436173,17.7934121 71.8569421,17.7611108 70.8863789,17.7446165 C70.1301731,17.7611108 69.3897289,17.7934121 68.649635,17.8099064 L68.649635,17.4384411 C69.1760719,17.4384411 69.8667795,17.4384411 70.0475124,16.8896622 C70.195321,16.4539379 70.195321,15.2598196 70.195321,14.743342 L70.195321,10.224936 Z" id="Fill-164"></path> <path d="M88.549209,8.4431002 C88.0273411,7.74448681 87.6236724,7.50643074 86.7153285,7.49053779 L86.7153285,7.125 C87.2533145,7.14089295 87.7748243,7.17301699 88.3135267,7.18857179 C88.7505061,7.17301699 89.2050362,7.14089295 89.6416574,7.125 L96.7400646,15.303105 L96.7737335,15.303105 L96.7737335,10.8882471 C96.7737335,10.2055266 96.7737335,9.09471105 96.6225816,8.4431002 C96.4209264,7.55410958 95.9663962,7.61734323 95.1257482,7.49053779 L95.1257482,7.125 C95.7475484,7.14089295 96.3535886,7.17301699 96.9757469,7.18857179 C97.5642363,7.17301699 98.1362494,7.14089295 98.7591241,7.125 L98.7591241,7.49053779 C98.1362494,7.55410958 97.6989119,7.50643074 97.480064,8.18915119 C97.3124359,8.69704922 97.278767,10.3326702 97.278767,10.96805 L97.278767,17.8125 L96.7737335,17.8125 C96.4037338,17.3833904 96.033734,16.938726 95.6637343,16.4943998 L89.0868369,8.96689118 L89.0535262,8.96689118 L89.0535262,14.3025256 C89.0535262,14.8905647 89.0535262,16.0811832 89.3053266,16.6212052 C89.5915122,17.240692 90.1466909,17.2089061 90.7692074,17.2721398 L90.7692074,17.6376776 C90.1302146,17.6217846 89.4740293,17.5899987 88.8350365,17.5737676 C88.2121618,17.5899987 87.5900035,17.6217846 86.9671289,17.6376776 L86.9671289,17.2721398 C87.6236724,17.2089061 88.2461889,17.1767821 88.4141752,16.4943998 C88.549209,15.9225918 88.549209,14.9220124 88.549209,14.3025256 L88.549209,8.4431002 Z" id="Fill-166"></path> <path d="M105.992158,13.4931925 L104.115514,9.0483472 L102.221434,13.4931925 L105.992158,13.4931925 Z M101.846541,14.3917615 C101.5908,14.9905838 101.028098,16.1570116 101.028098,16.7722813 C101.028098,17.4496486 101.897762,17.4023202 102.40997,17.4496486 L102.40997,17.8125 C101.778247,17.7963882 101.164323,17.7651716 100.532963,17.7490598 C99.9361132,17.7651716 99.3556106,17.7963882 98.7591241,17.8125 L98.7591241,17.4496486 C99.6800091,17.3549918 100.055265,17.1032447 100.396374,16.3302136 C100.874435,15.3215472 101.335059,14.328657 101.812394,13.3199906 L104.422476,7.125 L105.002979,7.125 L108.448941,15.1325691 C108.653461,15.5424132 109.028354,16.5044225 109.335679,16.8662669 C109.710572,17.3234395 110.22278,17.3868797 110.80292,17.4496486 L110.80292,17.8125 C110.001187,17.7963882 109.182017,17.7651716 108.380284,17.7490598 C107.56184,17.7651716 106.72596,17.7963882 105.90679,17.8125 L105.90679,17.4496486 C106.384851,17.4338725 107.220368,17.4654248 107.220368,16.8508264 C107.220368,16.4567584 107.032922,15.983474 106.879259,15.6216296 L106.213752,13.9980292 L101.99984,13.9980292 L101.846541,14.3917615 Z" id="Fill-168"></path> <path d="M121.642336,9.64338614 L121.172152,9.64338614 C121.068408,8.06140238 120.407409,7.64201512 118.771215,7.64201512 C118.128001,7.64201512 117.083519,7.56123151 117.083519,8.07790286 L117.083519,15.7296578 C117.083519,16.924224 117.327318,17.3762685 119.015014,17.4408954 L119.015014,17.8125 C118.057974,17.7959995 117.083519,17.7636861 116.12685,17.7471856 C115.204638,17.7636861 114.29984,17.7959995 113.360214,17.8125 L113.360214,17.4408954 C115.04828,17.3762685 115.291338,16.924224 115.291338,15.7296578 L115.291338,8.07790286 C115.291338,7.59354495 114.525854,7.64201512 113.830027,7.64201512 C112.107503,7.64201512 111.272733,7.72279873 111.202705,9.64338614 L110.80292,9.64338614 L110.80292,7.125 L121.485608,7.125 L121.642336,9.64338614 Z" id="Fill-170"></path> <path d="M124.414182,10.1921258 C124.414182,9.6761254 124.414182,8.48117702 124.251071,8.04527526 C124.038575,7.4962728 123.368741,7.4962728 122.846715,7.4962728 L122.846715,7.125 C123.630275,7.14115724 124.414182,7.1738155 125.197742,7.1892852 C126.031035,7.1738155 126.847634,7.14115724 127.664234,7.125 L127.664234,7.4962728 C127.14186,7.4962728 126.472026,7.4962728 126.25953,8.04527526 C126.096419,8.48117702 126.096419,9.6761254 126.096419,10.1921258 L126.096419,14.7446866 C126.096419,15.2613746 126.096419,16.456323 126.25953,16.891881 C126.472026,17.4408834 127.14186,17.4408834 127.664234,17.4408834 L127.664234,17.8125 C126.896672,17.795999 126.096419,17.7636845 125.312511,17.7475273 C124.495912,17.7636845 123.662619,17.795999 122.846715,17.8125 L122.846715,17.4408834 C123.368741,17.4408834 124.038575,17.4408834 124.251071,16.891881 C124.414182,16.456323 124.414182,15.2613746 124.414182,14.7446866 L124.414182,10.1921258 Z" id="Fill-172"></path> <path d="M130.942206,12.5074548 C130.942206,14.9566528 131.970878,17.3909004 134.989775,17.3909004 C137.942614,17.3909004 138.838462,14.7852222 138.838462,12.4609426 C138.838462,10.120716 137.809791,7.54626737 134.890864,7.54626737 C132.020333,7.54626737 130.942206,10.1981255 130.942206,12.5074548 M128.868613,12.5074548 C128.868613,9.40243519 131.75504,7.125 134.956569,7.125 C138.125245,7.125 140.912409,9.30941085 140.912409,12.3988156 C140.912409,15.5968596 138.241466,17.8125 134.890864,17.8125 C131.655776,17.8125 128.868613,15.6433717 128.868613,12.5074548" id="Fill-174"></path> <path d="M145.155048,8.4431002 C144.633539,7.74448681 144.22987,7.50643074 143.321168,7.49053779 L143.321168,7.125 C143.85987,7.14089295 144.38138,7.17301699 144.919366,7.18857179 C145.356345,7.17301699 145.810876,7.14089295 146.248571,7.125 L153.346262,15.303105 L153.380647,15.303105 L153.380647,10.8882471 C153.380647,10.2055266 153.380647,9.09471105 153.229137,8.4431002 C153.027124,7.55410958 152.572952,7.61734323 151.731588,7.49053779 L151.731588,7.125 C152.354462,7.14089295 152.959786,7.17301699 153.581944,7.18857179 C154.17115,7.17301699 154.742805,7.14089295 155.364964,7.125 L155.364964,7.49053779 C154.742805,7.55410958 154.305468,7.50643074 154.086978,8.18915119 C153.918275,8.69704922 153.884965,10.3326702 153.884965,10.96805 L153.884965,17.8125 L153.380647,17.8125 C153.01029,17.3833904 152.639932,16.938726 152.269932,16.4943998 L145.693751,8.96689118 L145.659366,8.96689118 L145.659366,14.3025256 C145.659366,14.8905647 145.659366,16.0811832 145.912241,16.6212052 C146.198068,17.240692 146.752889,17.2089061 147.375405,17.2721398 L147.375405,17.6376776 C146.736054,17.6217846 146.079869,17.5899987 145.440876,17.5737676 C144.819076,17.5899987 144.195843,17.6217846 143.574043,17.6376776 L143.574043,17.2721398 C144.22987,17.2089061 144.852028,17.1767821 145.020373,16.4943998 C145.155048,15.9225918 145.155048,14.9220124 145.155048,14.3025256 L145.155048,8.4431002 Z" id="Fill-176"></path> <path d="M156.569343,14.4888732 L156.939139,14.4888732 C157.26164,16.0649713 158.130438,17.3909004 159.98079,17.3909004 C161.236521,17.3909004 162.282849,16.7041814 162.282849,15.4403793 C162.282849,14.0207614 161.011353,13.4592931 159.836505,13.0067961 C158.372057,12.4609426 156.810276,11.7120967 156.810276,9.93300615 C156.810276,8.15491234 158.243536,7.125 159.997241,7.125 C160.882147,7.125 161.703307,7.4216812 162.42782,7.92035811 L162.797616,7.31204537 L162.97446,7.31204537 L163.055,10.0110802 L162.684861,10.0110802 C162.315065,8.71638068 161.558679,7.54626737 159.997241,7.54626737 C158.967364,7.54626737 158.113988,8.18580971 158.113988,9.19977502 C158.113988,10.4326798 159.257306,10.8542794 160.254967,11.2595997 C161.928475,11.9307039 163.79562,12.742009 163.79562,14.7855544 C163.79562,16.8294321 161.831828,17.8125 159.948917,17.8125 C158.854951,17.8125 158.001575,17.500204 157.13312,16.8759442 L156.746187,17.5314336 L156.569343,17.5314336 L156.569343,14.4888732 Z" id="Fill-178"></path> <path d="M57.4754061,27.9454543 C57.4754061,30.3950607 58.5037246,32.8283873 61.5229749,32.8283873 C64.4758138,32.8283873 65.3716625,30.2232926 65.3716625,27.8989407 C65.3716625,25.5586414 64.3429908,22.9837805 61.4233577,22.9837805 C58.5535332,22.9837805 57.4754061,25.6360533 57.4754061,27.9454543 M55.4014599,27.9454543 C55.4014599,24.8403382 58.2882405,22.5625 61.4901224,22.5625 C64.6580921,22.5625 67.4452555,24.747311 67.4452555,27.8361473 C67.4452555,31.0346229 64.7746655,33.25 61.4233577,33.25 C58.1886232,33.25 55.4014599,31.0811365 55.4014599,27.9454543" id="Fill-180"></path> <path d="M79.0996405,28.8674656 C79.0996405,31.7573683 77.9087628,33.25 74.7218969,33.25 C71.719342,33.25 70.259856,32.2500653 70.259856,29.3753797 L70.259856,25.5798885 C70.259856,25.0719744 70.259856,23.8968735 70.092333,23.4677504 C69.8737316,22.9283875 69.1861372,22.9283875 68.649635,22.9283875 L68.649635,22.5625 C69.4379575,22.5783935 70.2434252,22.6108567 71.0317476,22.6260738 C71.8872222,22.6108567 72.7255515,22.5783935 73.5813832,22.5625 L73.5813832,22.9283875 C73.0441667,22.9283875 72.3397843,22.9121559 72.1386853,23.4677504 C71.9875931,23.8968735 71.9875931,25.0719744 71.9875931,25.5798885 L71.9875931,29.4866338 C71.9875931,31.5193047 72.8266368,32.6781739 75.1244521,32.6781739 C77.4394127,32.6781739 78.5967144,31.5351981 78.5967144,29.4071666 L78.5967144,25.9295444 C78.5967144,25.3736118 78.5967144,24.1508306 78.4288342,23.6584718 C78.1934447,22.9916232 77.5229956,22.9283875 76.8689773,22.9283875 L76.8689773,22.5625 C77.5229956,22.5783935 78.1602259,22.6108567 78.8146014,22.6260738 C79.4346865,22.6108567 80.0562004,22.5783935 80.6934307,22.5625 L80.6934307,22.9283875 C80.1562141,22.9439428 79.5693478,22.9283875 79.3346728,23.5002136 C79.0996405,24.0710252 79.0996405,25.2941445 79.0996405,25.9295444 L79.0996405,28.8674656 Z" id="Fill-182"></path> <path d="M84.935463,23.8806836 C84.4142804,23.1816878 84.0105878,22.9436167 83.1021898,22.9280609 L83.1021898,22.5625 C83.640566,22.5780558 84.1621068,22.61052 84.7004831,22.6257376 C85.1378466,22.61052 85.5916874,22.5780558 86.0286928,22.5625 L93.1278804,30.7411226 L93.1615513,30.7411226 L93.1615513,26.3259852 C93.1615513,25.6432216 93.1615513,24.5323357 93.0100322,23.8806836 C92.808365,22.9912986 92.354166,23.0548744 91.5131098,22.9280609 L91.5131098,22.5625 C92.1353051,22.5780558 92.7410232,22.61052 93.3632185,22.6257376 C93.9521011,22.61052 94.5241483,22.5780558 95.1459854,22.5625 L95.1459854,22.9280609 C94.5241483,22.9912986 94.0867847,22.9436167 93.8679239,23.6267185 C93.6995694,24.1346487 93.6662567,25.7703732 93.6662567,26.4057932 L93.6662567,33.25 L93.1615513,33.25 C92.7915296,32.8208633 92.4211496,32.3768471 92.0514861,31.9318164 L85.4738393,24.4045077 L85.4401684,24.4045077 L85.4401684,29.7404798 C85.4401684,30.3282179 85.4401684,31.5192499 85.6927001,32.0593062 C85.9789028,32.6781559 86.5337563,32.6467061 87.156668,32.7102819 L87.156668,33.0755047 C86.5176373,33.0599489 85.8610547,33.028161 85.2216657,33.0119289 C84.5991122,33.028161 83.9772751,33.0599489 83.3543634,33.0755047 L83.3543634,32.7102819 C84.0105878,32.6467061 84.6334995,32.61458 84.8011376,31.9318164 C84.935463,31.3606486 84.935463,30.3600059 84.935463,29.7404798 L84.935463,23.8806836 Z" id="Fill-184"></path> <path d="M100.795185,30.4068634 C100.795185,30.9560029 100.729333,31.7302277 101.057895,32.1982677 C101.436548,32.7470635 102.275118,32.8113245 102.900368,32.8113245 C105.77897,32.8113245 106.338367,30.7783401 106.338367,28.3896866 C106.338367,25.1941623 105.401018,22.9996663 101.880703,22.9996663 C101.682795,22.9996663 101.041432,22.9680513 100.893614,23.1123808 C100.795185,23.2096314 100.795185,23.4838575 100.795185,23.6127231 L100.795185,30.4068634 Z M99.1008807,25.6622023 C99.1008807,25.1457088 99.1008807,23.9515539 98.9527122,23.5165035 C98.7712671,22.9515565 98.0805149,22.9680513 97.5547445,22.9680513 L97.5547445,22.5639286 C98.2286833,22.5800798 98.9358988,22.6127258 99.626651,22.6281896 C100.515311,22.6127258 101.403271,22.5800798 102.291932,22.5639286 C105.762857,22.499324 108.394161,24.6299026 108.394161,28.1316117 C108.394161,31.5525649 106.107883,33.3274743 102.719624,33.2474058 C101.748998,33.2312547 100.761558,33.1989523 99.7916329,33.1824575 C99.035028,33.1989523 98.2941857,33.2312547 97.5547445,33.2474058 L97.5547445,32.8762728 C98.0805149,32.8762728 98.7712671,32.8762728 98.9527122,32.327477 C99.1008807,31.8913956 99.1008807,30.6975843 99.1008807,30.1810908 L99.1008807,25.6622023 Z" id="Fill-186"></path> <path d="M115.627195,28.9310282 L113.750551,24.4861829 L111.856834,28.9310282 L115.627195,28.9310282 Z M111.481214,29.8292615 C111.225837,30.4284194 110.663134,31.5948473 110.663134,32.2097813 C110.663134,32.8874843 111.532798,32.8401559 112.044643,32.8874843 L112.044643,33.25 C111.413283,33.2342239 110.79936,33.2030072 110.167636,33.1868954 C109.570786,33.2030072 108.990647,33.2342239 108.394161,33.25 L108.394161,32.8874843 C109.315409,32.7924918 109.690302,32.5404091 110.031411,31.7680492 C110.509472,30.7593829 110.969369,29.766157 111.44743,28.7574906 L114.057513,22.5625 L114.636925,22.5625 L118.083615,30.5700691 C118.288498,30.9799132 118.663754,31.9415868 118.970352,32.3041025 C119.345609,32.7612751 119.857817,32.8243797 120.437593,32.8874843 L120.437956,33.25 C119.63586,33.2342239 118.817053,33.2030072 118.014957,33.1868954 C117.196877,33.2030072 116.360633,33.2342239 115.541827,33.25 L115.541827,32.8874843 C116.019524,32.8713725 116.855041,32.9032604 116.855041,32.2886621 C116.855041,31.8945941 116.667595,31.4213097 116.513933,31.058794 L115.848788,29.4351935 L111.634877,29.4351935 L111.481214,29.8292615 Z" id="Fill-188"></path> <path d="M131.277372,25.0809671 L130.807189,25.0809671 C130.703445,23.4989325 130.042446,23.0795317 128.406252,23.0795317 C127.763038,23.0795317 126.718556,22.9984018 126.718556,23.5154335 L126.718556,31.1674346 C126.718556,32.3620392 126.962355,32.8137545 128.650421,32.8787272 L128.650421,33.25 C127.69301,33.2338428 126.718556,33.2015283 125.761886,33.1850273 C124.839674,33.2015283 123.934877,33.2338428 122.995621,33.25 L122.995621,32.8787272 C124.683317,32.8137545 124.926375,32.3620392 124.926375,31.1674346 L124.926375,23.5154335 C124.926375,23.03106 124.160891,23.0795317 123.465064,23.0795317 C121.742539,23.0795317 120.907769,23.1599742 120.837371,25.0809671 L120.437956,25.0809671 L120.437956,22.5625 L131.120644,22.5625 L131.277372,25.0809671 Z" id="Fill-190"></path> <path d="M134.049575,25.6299696 C134.049575,25.1136254 134.049575,23.918677 133.886151,23.4827753 C133.674048,22.9341166 133.004707,22.9341166 132.481752,22.9341166 L132.481752,22.5625 C133.265837,22.5786572 134.049575,22.6116593 134.83366,22.627129 C135.666077,22.6116593 136.4825,22.5786572 137.29927,22.5625 L137.29927,22.9341166 C136.776662,22.9341166 136.106973,22.9341166 135.89487,23.4827753 C135.731447,23.918677 135.731447,25.1136254 135.731447,25.6299696 L135.731447,30.1825304 C135.731447,30.6992184 135.731447,31.893823 135.89487,32.3297247 C136.106973,32.8787272 136.776662,32.8787272 137.29927,32.8787272 L137.29927,33.25 C136.531875,33.2338428 135.731447,33.2015283 134.947709,33.185371 C134.130939,33.2015283 133.298522,33.2338428 132.481752,33.25 L132.481752,32.8787272 C133.004707,32.8787272 133.674048,32.8787272 133.886151,32.3297247 C134.049575,31.893823 134.049575,30.6992184 134.049575,30.1825304 L134.049575,25.6299696 Z" id="Fill-192"></path> <path d="M141.781561,27.9454543 C141.781561,30.3950607 142.80985,32.8283873 145.829365,32.8283873 C148.781764,32.8283873 149.677939,30.2232926 149.677939,27.8989407 C149.677939,25.5586414 148.648945,22.9837805 145.72975,22.9837805 C142.86001,22.9837805 141.781561,25.6360533 141.781561,27.9454543 M139.708029,27.9454543 C139.708029,24.8403382 142.594372,22.5625 145.795807,22.5625 C148.964743,22.5625 151.751825,24.747311 151.751825,27.8361473 C151.751825,31.0346229 149.080607,33.25 145.72975,33.25 C142.495111,33.25 139.708029,31.0811365 139.708029,27.9454543" id="Fill-194"></path> <path d="M154.789174,23.8806836 C154.267976,23.1816878 153.863913,22.9436167 152.956204,22.9280609 L152.956204,22.5625 C153.49388,22.5780558 154.015078,22.61052 154.553829,22.6257376 C154.991205,22.61052 155.44506,22.5780558 155.882794,22.5625 L162.981119,30.7411226 L163.015507,30.7411226 L163.015507,26.3259852 C163.015507,25.6432216 163.015507,24.5323357 162.863983,23.8806836 C162.66231,22.9912986 162.207739,23.0548744 161.366658,22.9280609 L161.366658,22.5625 C161.98923,22.5780558 162.594966,22.61052 163.216822,22.6257376 C163.80608,22.61052 164.377786,22.5780558 165,22.5625 L165,22.9280609 C164.377786,22.9912986 163.94041,22.9436167 163.7219,23.6267185 C163.553183,24.1346487 163.519869,25.7703732 163.519869,26.4057932 L163.519869,33.25 L163.015507,33.25 C162.645116,32.8208633 162.274725,32.3768471 161.904692,31.9318164 L155.327924,24.4045077 L155.293536,24.4045077 L155.293536,29.7404798 C155.293536,30.3282179 155.293536,31.5192499 155.546075,32.0593062 C155.831928,32.6781559 156.387157,32.6467061 157.009729,32.7102819 L157.009729,33.0755047 C156.370679,33.0599489 155.714435,33.028161 155.075385,33.0119289 C154.453171,33.028161 153.830241,33.0599489 153.208027,33.0755047 L153.208027,32.7102819 C153.863913,32.6467061 154.486485,32.61458 154.654486,31.9318164 C154.789174,31.3606486 154.789174,30.3600059 154.789174,29.7404798 L154.789174,23.8806836 Z" id="Fill-196"></path> </g> </g> </g> </g> </svg> 