<?xml version="1.0" encoding="utf-8"?>
<!-- Generator: Adobe Illustrator 25.0.1, SVG Export Plug-In . SVG Version: 6.00 Build 0)  -->
<svg version="1.1" id="Layer_1" xmlns="http://www.w3.org/2000/svg" xmlns:xlink="http://www.w3.org/1999/xlink" x="0px" y="0px"
	 viewBox="0 0 720 249.5" style="enable-background:new 0 0 720 249.5;" xml:space="preserve">
<style type="text/css">
	.st0{fill:#FFFFFF;}
</style>
<path id="Masterbrand_Logotype_solid_1_" class="st0" d="M262.5,99.4V69.1h8.6v29.3c0,5.7,2.7,9.9,9.5,9.9c6.3,0,9.5-3.3,9.5-9.9
	V69.1h8.6v29.6c0,11-7.3,17.3-18.1,17.3C269.8,116.1,262.5,110.5,262.5,99.4z M306.8,82.1h7.7v4.1h0.1c2.2-3.2,5.7-4.7,9.4-4.7
	c7.5,0,11.6,4.7,11.6,12.6v21.3h-7.9V96.1c0-5-2.1-7.7-6.2-7.7c-4.3,0-6.9,2.7-6.9,8.3v18.6h-7.9L306.8,82.1L306.8,82.1z
	 M343.9,68.6h7.9v8.4h-7.9V68.6z M343.9,82.1h7.9v33.2h-7.9V82.1z M361.5,107.5V88.4H357v-6.3h4.5V72.1h7.9v10.1h7.2v6.3h-7.2v17.2
	c0,2.5,1.3,3.2,3.1,3.2c1.6,0,2.5-0.1,4.1-0.3v6.7c-1.8,0.5-4.7,0.6-5.8,0.6C365.6,115.9,361.5,113.4,361.5,107.5z M380.3,102.6
	v-6.5c0-9.3,7-14.5,15.2-14.5c7.2,0,14.3,4.2,14.3,13v6.4h-21.3v1.8c0,4.2,3.4,6.7,7.7,6.7c2.7,0,5.4-1.8,7.2-4.3l6.1,3.5
	c-2.6,5.2-7.8,7.4-13.7,7.4C387.7,116.1,380.3,111.7,380.3,102.6z M402,95.5v-0.9c0-4.5-3.2-6.4-6.4-6.4c-3.4,0-7,1.8-7,6.8v0.5
	L402,95.5L402,95.5z M415.5,103v-8c0-9,6.3-13.5,13.7-13.5c3.7,0,6.7,1.9,8.4,4.1h0.2V69.1h7.9v46.3H438v-3.7H438
	c-1.9,2.6-6.4,4.5-9.3,4.5C421.3,116.1,415.5,111.5,415.5,103z M437.8,102.8v-8.2c0-4-3.2-6.4-7.3-6.4c-3.3,0-6.9,1.8-6.9,6.6v8.2
	c0,4,3.1,6.4,7.2,6.4C434.1,109.3,437.8,107.6,437.8,102.8z M470.9,69.1h8.4l20.1,31.5h0.1V69.1h8.3v46.3h-8.4l-20-31.6h-0.1v31.6
	h-8.3L470.9,69.1L470.9,69.1z M514.6,105.9c0-6.4,5.8-10.2,12.3-10.2h8.8v-3c0-3.5-2.3-5-6.4-5c-3.4,0-6,1.2-6,3.3v1.2h-7.1v-0.9
	c0-7.3,6.9-9.7,13.2-9.7c7.4,0,14.2,2.5,14.2,10.6v16.2c0,1.5,0.2,6.4,0.6,7.1h-7.8c-0.1-0.5-0.3-2.5-0.3-3h-0.1
	c-2.9,3-5.4,3.7-9.7,3.7C519.3,116,514.6,112.2,514.6,105.9z M535.7,103.1v-1.6h-7.8c-3.4,0-5.6,1.2-5.6,4.1c0,2.8,2.3,4.2,6,4.2
	C534.7,109.8,535.7,106.7,535.7,103.1z M553,107.5V88.4h-4.5v-6.3h4.5V72.1h7.9v10.1h7.2v6.3h-7.2v17.2c0,2.5,1.3,3.2,3.1,3.2
	c1.6,0,2.5-0.1,4.1-0.3v6.7c-1.8,0.5-4.7,0.6-5.8,0.6C557.1,115.9,553,113.4,553,107.5z M573.4,68.6h7.9v8.4h-7.9V68.6z M573.4,82.1
	h7.9v33.2h-7.9V82.1z M588.3,103.1v-7.6c0-9,7.7-13.9,15-13.9c8,0,15.2,5.3,15.2,13.8v6.8c0,9-7.7,13.9-15,13.9
	C595.5,116.1,588.3,111.6,588.3,103.1z M610.5,102.9v-8.2c0-4-3.1-6.4-7.2-6.4c-3.3,0-6.9,1.8-6.9,6.6v8.2c0,4,3.1,6.4,7.2,6.4
	C606.9,109.5,610.5,107.7,610.5,102.9z M625.6,82.1h7.7v4.1h0.1c2.2-3.2,5.7-4.7,9.4-4.7c7.5,0,11.6,4.7,11.6,12.6v21.3h-7.9V96.1
	c0-5-2.1-7.7-6.2-7.7c-4.3,0-6.9,2.7-6.9,8.3v18.6h-7.9L625.6,82.1L625.6,82.1z M660.4,109.6l5.6-4.2c2.1,2.7,5.4,4.3,9.1,4.3
	c3.2,0,6.6-1.1,6.6-4.1c0-2.6-1.8-3.2-6.2-4l-4.3-0.8c-5.4-1-9.1-3.6-9.1-8.6c0-6.9,6.1-10.9,13.2-10.9c6,0,10.2,1.5,13,5.4
	l-5.7,3.9c-1.9-2.3-4.2-3.2-7.4-3.2c-3.1,0-5.4,1.2-5.4,3.7c0,2.3,2.9,2.7,6.3,3.3l5,1c5.6,1.1,8.9,4.3,8.9,9.3
	c0,7.7-7.8,11.3-14.7,11.3C669.3,116.1,663.7,114.5,660.4,109.6z M262.5,170.3v-16.5c0-9.5,7.2-16.2,17.2-16.2
	c9.3,0,16.2,5.3,16.2,13.2v2.5H292v-1.9c0-6.3-4.7-10.2-12.5-10.2c-7.5,0-12.9,4.9-12.9,12.5v15.8c0,7.5,5.4,12.3,13.2,12.3
	c7.7,0,12.4-4,12.4-10.3v-6.6h-13v-3.7h16.9v10.8c0,8.2-6.5,13.4-16.3,13.4C270.1,185.6,262.5,180.3,262.5,170.3z M305.6,177.1
	v-38.7h3.8v38.9c0,2.5,1.4,4.5,4.7,4.5c1.3,0,2.5-0.2,3.6-0.3v2.9c-1.6,0.5-3.4,0.6-4.8,0.6C307.2,185,305.6,181.1,305.6,177.1z
	 M322.5,173.2v-8.7c0-8.4,5.7-12.8,13.1-12.8c8,0,13.1,4.5,13.1,12.7v8.4c0,8.4-5.5,12.8-13,12.8
	C327.8,185.6,322.5,181.4,322.5,173.2z M344.9,172.9v-8.8c0-5.3-2.9-9.1-9.3-9.1c-6.1,0-9.3,3.6-9.3,9.4v8.7c0,5.5,3,9.3,9.4,9.3
	C341.9,182.3,344.9,179,344.9,172.9z M360.7,179h-0.2v5.8h-3.6v-46.3h3.8v19.7h0.2c2.1-4.7,6.7-6.6,10.4-6.6
	c6.8,0,11.4,4.4,11.4,11.2v10.5c0,8.7-6,12.3-12.1,12.3C366.4,185.6,362,183.2,360.7,179z M378.8,173.8v-11c0-4.5-3.2-7.8-8.7-7.8
	c-4.5,0-9.4,4.1-9.4,10.8v6.4c0,6.2,4.4,10.2,9.5,10.2C374.4,182.3,378.8,179.7,378.8,173.8z M389.1,176.2c0-7.3,6.7-9.7,12-9.7h9.5
	v-5c0-5.1-3.4-6.8-8.2-6.8c-4,0-8.3,1.4-8.3,5.6v1h-3.5v-1c0-6.4,6-8.8,12-8.8c6.3,0,11.9,2.3,11.9,9.3v15.7c0,1.9,0.3,6.7,0.5,8.1
	h-3.8c-0.1-1.1-0.3-4.2-0.3-5.1h-0.1c-2.7,5-7,5.8-11,5.8C393.9,185.4,389.1,182.2,389.1,176.2z M410.6,173v-3.6h-8.7
	c-4.4,0-9,1.1-9,6.6c0,4.3,3.8,6.4,7.8,6.4C407.3,182.5,410.6,178.6,410.6,173z M423.8,177.1v-38.7h3.8v38.9c0,2.5,1.4,4.5,4.7,4.5
	c1.3,0,2.5-0.2,3.6-0.3v2.9c-1.6,0.5-3.4,0.6-4.8,0.6C425.4,185,423.8,181.1,423.8,177.1z M457.2,170.3v-16.5
	c0-9.5,7.2-16.2,17.3-16.2c9.3,0,16.2,5.5,16.2,13.4v2.6h-4v-1.9c0-6.3-4.7-10.4-12.4-10.4c-7.5,0-13,4.9-13,12.5v15.8
	c0,7.5,5.4,12.3,13.3,12.3c7.6,0,12.1-4.2,12.1-10.4v-1.1h4v1.8c0,8.2-6.7,13.4-16,13.4C464.8,185.6,457.2,180.3,457.2,170.3z
	 M497.3,173.2v-8.7c0-8.4,5.7-12.8,13.1-12.8c8,0,13.1,4.5,13.1,12.7v8.4c0,8.4-5.5,12.8-13,12.8
	C502.6,185.6,497.3,181.4,497.3,173.2z M519.7,172.9v-8.8c0-5.3-2.9-9.1-9.3-9.1c-6.1,0-9.3,3.6-9.3,9.4v8.7c0,5.5,3,9.3,9.4,9.3
	C516.7,182.3,519.7,179,519.7,172.9z M531.6,152.4h3.6v6.2h0.1c2.3-4.6,6.6-6.9,11.2-6.9c5.3,0,8.2,3.3,9.1,7.1h0.1
	c2.3-4.6,6.7-7.1,11.5-7.1c6.3,0,10.1,4.1,10.1,9.9v23.2h-3.8v-21.1c0-5.8-2.8-8.6-7.5-8.6c-5,0-9.5,4.2-9.7,9.9v19.8h-3.8v-21.3
	c-0.1-5.6-2.7-8.4-7.4-8.4c-4.5,0-9.8,3.7-9.8,10.1v19.7h-3.8L531.6,152.4L531.6,152.4z M586.9,152.4h3.6v5.8h0.1
	c2.3-4.6,6.9-6.6,10.6-6.6c6.8,0,11.4,4.3,11.4,11v10.6c0,8.7-6,12.3-12,12.3c-4.2,0-8.4-2.4-9.8-6.6h-0.2v18.4h-3.8L586.9,152.4
	L586.9,152.4z M608.8,173.8v-10.9c0-4.5-3.2-8-8.7-8c-4.5,0-9.4,3.8-9.4,10.6v6.6c0,6.2,4.4,10.2,9.5,10.2
	C604.4,182.3,608.8,179.7,608.8,173.8z M619.1,176.2c0-7.3,6.7-9.7,12-9.7h9.5v-5c0-5.1-3.4-6.8-8.2-6.8c-4,0-8.3,1.4-8.3,5.6v1
	h-3.5v-1c0-6.4,6-8.8,12-8.8c6.3,0,11.9,2.3,11.9,9.3v15.7c0,1.9,0.3,6.7,0.5,8.1h-3.8c-0.1-1.1-0.3-4.2-0.3-5.1h-0.1
	c-2.7,5-7,5.8-11,5.8C623.9,185.4,619.1,182.2,619.1,176.2z M640.6,173v-3.6h-8.7c-4.4,0-9,1.1-9,6.6c0,4.3,3.8,6.4,7.8,6.4
	C637.3,182.5,640.6,178.6,640.6,173z M652,172.6v-7.5c0-8.4,5.1-13.4,12.9-13.4c7.6,0,12.3,4.3,12.3,10.7v1h-3.7v-1.3
	c0-3.3-2.5-7.2-8.6-7.2c-6,0-9,4.3-9,9.9v7.8c0,5.6,2.7,9.7,9.1,9.7c6.1,0,8.5-3.8,8.5-7.2V174h3.7v0.8c0,6.4-4.6,10.7-12.3,10.7
	C656.9,185.6,652,180.9,652,172.6z M687.1,178.3v-22.7h-6v-3.1h6v-10.2h3.8v10.2h9.6v3.1h-9.6v21.7c0,3.5,1.8,4.6,5.1,4.6
	c1.7,0,3.4-0.3,4.9-0.7v3.3c-2.1,0.6-4.7,0.8-6,0.8C690.8,185.3,687.1,183.8,687.1,178.3z M157.4,134.1c-0.4-0.3-0.5-2-0.5-2
	c-1.1-8.5-3.2-17.1-6.5-25.5c-0.2-0.5-0.3-0.8-0.3-1.1c0-0.4,0.2-0.8,1.2-1.3c4.3-2,7.8-4.5,10.4-7.1c0.4-0.4,0.7-0.6,0.9-0.6h0
	c0.2,0,0.4,0.2,0.8,0.8c3.9,6.7,6.8,14.2,8.8,22.1c0.2,0.9,0.3,1.6,0.3,2.1c0,1.1-0.4,1.9-1.4,2.9c-2.6,2.6-7.2,6.3-12,9.2
	C158.9,133.6,157.7,134.3,157.4,134.1z M153.2,143.9c0,0,0-1.5-0.5-1.8c-0.5-0.3-1.7,0.2-1.7,0.2c-8.4,3-17.6,4.5-27.2,4.8
	c-1.8,0.1-1.7,0.5-1.8,2c-0.1,8.5-0.3,16.5-0.5,23.8c0,0-0.1,0.7,0.2,1c0.2,0.2,1,0.2,1,0.2c9.6-0.6,18.7-2.7,27-6.1
	c1.2-0.5,1.4-1.3,1.8-2.7C153.8,156.1,153.2,143.9,153.2,143.9z M149.5,100.3c3.8-2,7.3-4.4,9.5-6.7c0.5-0.5,0.7-0.9,0.7-1.4
	c0-0.5-0.2-1-0.7-1.8c-5.1-7.1-11.2-12.7-17.8-16.9c-1.9,1.3-4.9,2.5-8,3.2c5.4,6.6,10.2,14.1,14.1,22.6c0.4,0.8,0.6,1.3,0.9,1.4
	C148.6,100.8,149.1,100.5,149.5,100.3z M142.9,103.1c0.5-0.2,0.8-0.3,1-0.7c0.1-0.4-0.2-1.3-0.2-1.3c-3.7-9.1-8.2-17.4-13-23.8
	c-2.6,0.5-7.6,0.8-9.4,0.8c0.3,9.2,0.5,18.3,0.6,27.1c0,0.8,0.1,1.2,0.4,1.4c0.2,0.2,0.6,0.3,1,0.3
	C129.3,106.8,137.9,105,142.9,103.1z M149.4,172c0-0.2-0.2-0.2-0.2-0.2c-0.2,0-0.5,0.1-1.2,0.3c-10.5,3.3-19.6,4.1-25.5,4.2
	c-0.8,0-1,0.3-1.1,1.2l-0.5,7.8c0,0,11.8,0.3,23.9-4.8c1.7-2.2,3.1-4.8,4.3-7.7C149.2,172.5,149.3,172.3,149.4,172z M173.9,128.9
	c0-0.2-0.2,0-0.2,0c-2.8,2.8-7.9,6.6-13.9,9.6c-1.9,1-2.1,1.7-2.2,3.4c0.1,9.7-1.1,17.1-3.2,23.4c0,0-0.2,0.5,0.4,0.2
	c0.6-0.3,9.3-4.5,15.3-10.6c2-2,3.6-5,3.9-8.2C175.3,136.1,173.9,128.9,173.9,128.9z M176.9,116.5c4-6.9,4-12.6,4-12.6
	c0-0.4,0-0.7-0.1-0.9c-1.8-7.9-6-15.4-12.3-22.3c0.1,0.7,0.1,1.3,0.1,2c0,2.4-0.5,4.9-1.7,7.5c-0.4,0.9-0.6,1.5-0.6,2
	c0,0.5,0.2,0.8,0.5,1.4C166.9,93.4,173.3,102.1,176.9,116.5z M85.6,136.1c0.6-9.8,3.3-20.1,7-29.9c0.1-0.2,0.1-0.4,0.1-0.5
	c0-0.3-0.2-0.5-0.7-0.7c-6.2-2.7-10.9-6.4-14-10.4c0,0-0.2-0.2,0-0.4c0.2-0.2,0.4,0,0.4,0c3.5,3.4,8.6,6.2,14.5,8.4
	c0.3,0.1,0.4,0.1,0.6,0.1c0.3,0,0.5-0.2,0.9-1c4-9.2,9.2-17.9,15.1-25.1c-5-1.2-10.1-3.9-11.3-6.8c0,0-0.2-0.3,0.1-0.5
	c0.3-0.1,0.5,0.2,0.5,0.2c5.5,6,21.6,5.6,21.6,5.6c6.7,0,20.6-2.3,20.6-8c0-5.1-7.4-7.8-20.8-8c-40.6,0-62.4,35.2-62.4,63.1
	c0,33.7,28.6,63.1,61.7,63.1c0-0.5-0.4-7.9-0.4-7.9c0-0.8-0.2-1.1-1.2-1.2c0,0-14.4-1.1-19.1-3.5c-0.2-0.1-0.1-0.3,0.2-0.3
	c0,0,9.7,1.7,19,1.7c0,0,1,0.1,1-1.1c0-1-0.4-23.9-0.4-23.9c-0.1-1.7-0.3-2-2-2.1c-10-0.5-19.8-2.6-28.3-6.2
	c-0.2-0.1-0.3-0.1-0.5-0.1c-0.2,0.1-0.2,0.5-0.2,0.5c-0.8,10.6,0.4,20.9,0.4,20.9c0,0.2,0,0.3-0.2,0.3c-0.2,0-0.2-0.2-0.2-0.2
	c-1.5-5.7-2.3-11.9-2.3-18.5c0-0.5,0.1-3.2,0.1-3.2c0-0.7-0.3-1.2-0.9-1.5c-4-2-7.6-4.5-10.8-7c0,0-0.2-0.2,0-0.4
	c0.2-0.1,0.3,0,0.3,0c3.3,2.1,7.1,3.9,11,5.5l0.5,0C85.5,137,85.5,136.7,85.6,136.1 M163.5,86.7c1.1-2.8,1.3-6.7,0.1-9.5
	c-1.1-2.6-4.6-5.3-4.6-5.3c-5.4-4.2-11.4-6.8-14.2-7.9c0.5,0.9,0.8,1.8,0.8,2.7c0,1.6-0.8,3.2-2.2,4.9c7.1,4.1,13,9,18.2,15
	c0,0,0.8,1,1.3,1C163.2,87.5,163.5,86.7,163.5,86.7z M178.8,133.2c0,4.3-0.4,8.6-1.2,12.6c3.5-6,6.3-14.8,6.3-25
	c0-2.9-0.2-5.8-0.7-8.8c-0.6,3-1.6,6-3.3,8.8c-1.1,1.9-1.6,3.2-1.4,4.5C178.7,129.5,178.8,133.2,178.8,133.2z M151.6,172.6
	c-1.1,2.3-2.4,4.5-3.8,6.5c7.5-3.7,16-11,21.8-18.5c-4.5,3.6-9.6,6.7-15.4,9.1C153.1,170.3,152.1,171.6,151.6,172.6z M118.6,112.5
	c0-1.3-0.6-2-1.8-2.1c-7.4-0.3-14.5-1.7-20.8-3.9c-0.3-0.1-0.5-0.2-0.7-0.2c-0.2,0-0.4,0.1-0.5,0.6c-5.8,14.6-7,30.4-7,30.4
	c-0.1,0.7,0.1,0.9,0.6,1.1c0,0,12.3,4.7,28.1,4.7c0,0,1.1,0,1.4-0.3c0.4-0.4,0.5-0.7,0.4-2C118.5,133.1,118.6,112.5,118.6,112.5z
	 M96.6,102.5c-0.4,0.8-0.2,1.1-0.2,1.1c0.1,0.2,0.4,0.3,0.4,0.3c4.7,1.6,13.8,3.1,20.2,3.1c0.7,0,1.1-0.1,1.4-0.4
	c0.3-0.3,0.4-0.8,0.5-1.6l0,0c0.2-8.8,0.4-18,0.9-26.9c-2.7-0.1-6.1-0.5-8.4-1C105.4,84.6,100.5,93.1,96.6,102.5 M123.5,143
	c4.4-0.2,15.7-1,27.1-5.4c1.6-0.6,1.9-1.3,1.9-2.5c0-0.3,0-0.6-0.1-1c-1.1-8.7-3.2-17.4-6.1-26.1c-0.4-1.1-0.6-1.3-0.9-1.3
	c-0.2,0-0.5,0.1-0.9,0.2c-6.3,2.1-13.2,3.3-20.5,3.5c-1.4,0.1-1.8,1-1.8,2c0,4.5,0.1,11.6,0.1,21.2c0,2.4,0,5.7,0,8
	c0,0,0,0.7,0.3,1.1C122.6,143,123,143.1,123.5,143z M27.3,165.2C32.1,178,44,179.1,52,186.9c1.5,1.5,3,2.9,4.7,3.8l0.1-0.1
	c-1.9-2-4-4.2-5.3-6.8c-4.7-7.7-3-18.6-6.6-26.9c3.2,4.5,6.1,9.2,8,14.4c2.9,8.4,4,17.9,10.6,24.2c-7.2-2.8-15.6-2.2-22-7.3
	C34.9,182.9,28.6,174.6,27.3,165.2z M94.1,202c1,0,1.8-0.3,1.8-0.3c-6.2-1.4-11.5-2.5-16.8-7c-7-5.9-12.4-11.8-20.2-16.6
	c1,0.6,5.4,9.7,9.1,15.1c2.6,3.8,6.7,5.9,10.4,6.8c3.1,0.8,3.8,1.1,3.8,1.1s-0.5,0.3-1.7,0c0,0-10.3-2.1-15.9-2.1
	c-22.2,0-28-8.5-28-8.5c6.6,11.9,20.2,16.4,29.1,16.4C78.5,206.8,88,202,94.1,202z M175.8,206.8c8.9,0,22.5-4.4,29.1-16.4
	c0,0-5.8,8.5-28,8.5c-5.6,0-15.9,2.1-15.9,2.1c-1.2,0.3-1.7,0-1.7,0s0.7-0.3,3.8-1.1c3.6-0.9,7.8-3,10.4-6.8
	c3.7-5.4,8.1-14.5,9.1-15.1c-7.8,4.8-13.2,10.8-20.2,16.6c-5.3,4.4-10.6,5.6-16.8,7c0,0,0.8,0.3,1.8,0.3
	C153.6,202,163.1,206.8,175.8,206.8z M37.6,171.2c2.2,1.9,6.7,6,7.5,7.2c0,0-0.5-1.7-1-3.8c-0.5-2.1-1.2-7.2-3.3-11.6
	c-1.6-3.5-8.4-14.7-9.7-20.9C31.1,142.1,26.2,161.5,37.6,171.2z M178,195.5c7.2-2.8,15.5-2.2,21.9-7.3c6.7-5.3,13.1-13.6,14.4-23
	c-4.8,12.8-16.7,13.8-24.8,21.6c-1.5,1.5-3,2.9-4.7,3.8l-0.1-0.1c1.8-2,4-4.2,5.3-6.8c4.7-7.7,3-18.6,6.6-26.9
	c-3.2,4.5-6.1,9.2-8,14.4C185.7,179.7,184.6,189.1,178,195.5z M160.3,209.5c-11.1-4.5-22.6-10.2-35.9-7.5c-1.5,0.3-2.7,0.6-4.1,0.6
	c-1.3,0-2.5-0.3-4-0.6c-13.4-2.7-24.9,3-36,7.5c-8.3,3-19.1,2.5-26.4-2.1c3.6,4.2,8.4,6.8,13.4,8.6c9.2,3.4,20.2,1.1,27.8-3.9
	c6.6-3.4,12.2-10.2,20.8-7.7c-8.8,3.8-16.8,9.2-24.1,16.1l4.5,3.5c0,0,8.5-11.5,23.9-18.4c15.3,6.9,23.9,18.4,23.9,18.4l4.6-3.5
	c-7.3-6.9-15.3-12.2-24.1-16.1c8.6-2.6,14.3,4.2,20.8,7.7c7.7,5,18.6,7.3,27.9,3.9c5-1.8,9.8-4.4,13.4-8.6
	C179.4,212.1,168.6,212.6,160.3,209.5z M204,171.2c11.4-9.7,6.6-29.1,6.6-29.1c-1.3,6.2-8.1,17.5-9.7,20.9
	c-2.1,4.4-2.8,9.5-3.3,11.6c-0.5,2.1-1,3.8-1,3.8C197.3,177.2,201.8,173.1,204,171.2z M24,116.1c3.4,0.3,6.7,0.6,10.1,0.9
	c2.7,0.2,4.1-0.8,4.3-3.4c0.1-1.2,0-2.1-0.5-2.9c-0.6-1-1.5-1.5-3.4-1.7c-3.2-0.4-6.5-0.7-9.7-1.1c-0.4,0.7-0.7,1.4-1.1,2.1
	c-0.2,0-0.5,0-0.7-0.1c0.2-2.1,0.5-4.2,0.7-6.3c0.2,0,0.5,0.1,0.7,0.1c0.2,0.8,0.4,1.5,0.6,2.3c3.1,0.4,6.2,0.7,9.3,1.1
	c2.3,0.3,3.7,1.1,4.6,2.7c0.7,1.3,1,2.8,0.8,4.7c-0.4,4-2.5,6.1-5.9,5.8c-3.4-0.3-6.7-0.5-10.1-0.8c-0.4,0.7-0.7,1.4-1,2.1
	c-0.2,0-0.5,0-0.7-0.1c0.2-2.6,0.4-5.1,0.6-7.7c0.2,0,0.5,0,0.7,0.1C23.6,114.7,23.8,115.4,24,116.1z M29.4,96.3
	c3.6,1.2,7.3,2.4,10.9,3.6c0.5-0.5,1-1.1,1.5-1.6c0.2,0.1,0.4,0.1,0.7,0.2c-0.6,1.8-1.2,3.6-1.8,5.4c-0.2-0.1-0.5-0.1-0.7-0.2
	c-0.1-0.8-0.1-1.5-0.2-2.3c-4.3-1.4-8.6-2.8-12.9-4.2c-0.5,0.6-1,1.2-1.5,1.8C25.3,99,25,99,24.8,98.9c0.5-1.6,1-3.2,1.6-4.9
	c4.5-1.6,9-3.2,13.5-4.7c-3-1.1-6.1-2.2-9.1-3.2c-0.5,0.5-1,1.1-1.5,1.7c-0.2-0.1-0.4-0.1-0.7-0.2c0.6-1.9,1.3-3.8,2-5.6
	c0.2,0.1,0.4,0.2,0.6,0.2c0,0.8,0,1.6,0.1,2.4c4.8,1.7,9.6,3.5,14.4,5.2c-0.1,0.4-0.3,0.8-0.4,1.2C40,92.6,34.7,94.4,29.4,96.3z
	 M53.1,66.9l3.8,2.7c-0.9,2.3-1.6,3.7-2.5,5c-3.1,4.3-7.4,5.2-11.7,2.1c-4.3-3-5.7-7.4-2-12.6c0.8-1.2,2.1-2.4,3.7-3.9l0.3-0.3
	l3.3,2.4l-0.7,1L44,62.6c-0.5,0.3-0.8,0.6-1.1,1c-3.2,4-2.2,7.7,1.7,10.5c3.5,2.5,7.2,1.9,9.5-1.3c0.4-0.6,0.5-1,0.5-1l-3.3-2.3
	l-2,1.2l-0.6-0.4l4.3-5.9l0.6,0.4L53.1,66.9z M60,65.1l-9.6-9.7l-2.1,0.8l-0.5-0.5l5.3-5.2l0.5,0.5l-0.9,2.1l9.7,9.9l3-3l-1-3.3
	l0.7-0.8l2.7,3.3c0,0-4.2,4-8.3,8.3l-0.5-0.5L60,65.1z M64.7,51.7c-3.1-4.5-2.4-9.3,2.3-12.3c4.3-2.7,8.5-1.5,11,2.6
	c2.7,4.5,2,9.4-2.3,12.2C71.8,56.8,67.5,55.7,64.7,51.7L64.7,51.7z M67.2,49.4c2.6,3.7,5.9,4.9,8.2,3.5c2.2-1.4,2.3-4.9,0-8.8
	c-2.2-3.6-5.3-5.2-8-3.4C64.4,42.5,64.6,45.8,67.2,49.4L67.2,49.4z M85.7,46.6L80.3,34L78.1,34l-0.3-0.6l7.6-3.2
	c1.8-0.7,2.9-0.8,4.1-0.4c1.1,0.4,1.8,1.1,2.2,2.1c0.8,2.1-0.3,4.2-3,5.6c3.3-1.2,5.5-0.5,6.5,1.9c0.5,1.3,0.3,2.7-0.4,3.8
	c-0.7,1.1-1.8,1.8-3.9,2.7l-6.5,2.9l-0.3-0.6L85.7,46.6z M85.8,38.3l1-0.4c1.9-0.8,2.7-2.5,1.9-4.4c-0.7-1.9-2.2-2.6-4.1-1.8
	l-1.4,0.7L85.8,38.3z M88.8,45.6l0.9-0.4c1.3-0.5,1.9-0.9,2.3-1.8c0.4-0.8,0.4-1.8,0-2.7c-0.8-2.1-2.5-2.7-4.7-1.8l-1.2,0.5
	L88.8,45.6z M101.8,35.9l-0.9,5.1l2.1,0.5l0.1,0.7l-5.5,1.3l-0.1-0.7l1.7-1.2l3.8-16.6l1.2-0.2l8.6,14.3l2,0.5l0.1,0.7l-7.1,1
	l-0.1-0.7l1.7-1.2l-2.5-4.5L101.8,35.9z M102,34.7l4.2-0.8l-2.9-5.3L102,34.7z M118.4,38.8l0.1-13.6l-2.1-0.9l0-0.7
	c3.9-0.1,7.4-0.1,7.4-0.1v0.7l-2.1,0.9l-0.2,13.9l3.9,0.1l1.6-3l1,0l-0.4,4.3c0,0-6.3-0.3-11.5-0.1l0-0.7L118.4,38.8z M146.5,43
	l2.1-2.9l1.1,0.3l-1.3,3.9h-0.4c-2.3-0.1-3.6-0.2-5.1-0.6c-4.9-1.3-7-5.1-5.9-10.1c1.2-5.2,4.9-7.7,11.1-6.2c1.5,0.3,3,1.1,4.8,2.1
	l-1.1,4l-1.1-0.2l-0.3-3.6c0,0-0.6-0.3-1.3-0.5c-5.4-1.4-8,1.2-8.9,5.3c-1,4.2,0.8,7.4,4.5,8.5C145.5,42.8,145.9,42.9,146.5,43
	L146.5,43z M177.8,56.5l11.5-5.2l3.8,3.8l-0.5,0.5l-2.2-0.7l-9.4,9.7l1.1,2.1l-0.5,0.5c-2.5-2.5-5-4.9-5-4.9l0.5-0.6l2.1,0.7l7.6-8
	L174.1,60l-0.5-0.4l3.8-13.4l-6.9,8.7l1,2l-0.5,0.5l-4.8-3.4l0.5-0.5l2.2,0.7l8.6-10.4l-1-2l0.5-0.5l4.4,3.2L177.8,56.5z
	 M191.8,68.7l-4.3,3.2l0.5,2.2l-0.5,0.4c-2.1-2.9-4.5-5.8-4.5-5.8l0.6-0.4l1.9,1.1l10.6-8.3l-0.5-2.1l0.6-0.4l4.4,5.7
	c1.5,2,1.9,3.2,2,4.6c0,1.4-0.6,2.6-1.8,3.5c-2.5,1.8-5.6,0.9-7.9-2.2L191.8,68.7z M193.2,68.7c0.8,1.1,1.4,1.5,2.1,1.7
	c1.1,0.2,2.3,0.1,3.3-0.7c1-0.7,1.6-1.6,1.7-2.5c0.1-0.9-0.1-1.6-0.8-2.5l-1-1.2l-5.9,4.6L193.2,68.7z M198.5,80.1l-5.1,0.4l0.1,2.1
	l-0.6,0.3c-1.3-2.4-2.8-4.9-2.8-4.9l0.6-0.4l1.6,1.4l17-1l0.6,1.4l-11.4,12l0.1,2.1l-0.6,0.3c-1.4-3.4-2.7-6.5-2.7-6.5l0.6-0.3
	l1.6,1.3l3.4-3.6L198.5,80.1z M199.8,80l1.9,3.8l4.3-4.2L199.8,80z M202.3,104.6l3.7,0.4l0.3,1.1l-4,0.8l-0.2-0.3
	c-1.2-2-1.7-3.2-2.1-4.6c-1.4-5,0.8-8.5,5.8-10.2c5.2-1.7,9.5,0.9,10.9,6.4c0.4,1.5,0.6,3.3,0.6,5.3l-4,1l-0.3-1.1l2.9-2
	c0-0.4-0.1-1-0.2-1.5c-1.3-4.6-4.7-6.4-9-5c-4.2,1.4-6.1,4.2-5,8.1C201.8,103.6,202,104,202.3,104.6L202.3,104.6z M217.9,116.4
	l-13.7,1l-0.7,2.8l-0.7,0.1c-0.1-4.5-0.7-8.6-0.7-8.6l0.7-0.1l1.1,2.7l13.7-1l-0.3-3.5l-3.5-1l-0.1-1l4.7-0.4c0,0,1.1,7.4,1.1,14.7
	l-4.7,0.4l-0.1-1l3.3-1.5L217.9,116.4z M154.3,38.5c2.3-5,6.9-6.8,11.8-4.2c4.6,2.3,5.6,6.6,3.3,10.8c-2.5,4.6-7.2,6.5-11.7,4.2
	C153.5,47.2,152.2,43,154.3,38.5L154.3,38.5z M157.5,39.4c-1.9,4.1-1.3,7.6,1.1,8.8c2.3,1.2,5.4-0.5,7.6-4.3c2-3.7,1.8-7.2-1.1-8.7
	C162.1,33.6,159.4,35.4,157.5,39.4z M157.4,134.1c-0.4-0.3-0.5-2-0.5-2c-1.1-8.5-3.2-17.1-6.5-25.5c-0.2-0.5-0.3-0.8-0.3-1.1
	c0-0.4,0.2-0.8,1.2-1.3c4.3-2,7.8-4.5,10.4-7.1c0.4-0.4,0.7-0.6,0.9-0.6h0c0.2,0,0.4,0.2,0.8,0.8c3.9,6.7,6.8,14.2,8.8,22.1
	c0.2,0.9,0.3,1.6,0.3,2.1c0,1.1-0.4,1.9-1.4,2.9c-2.6,2.6-7.2,6.3-12,9.2C158.9,133.6,157.7,134.3,157.4,134.1z M153.2,143.9
	c0,0,0-1.5-0.5-1.8c-0.5-0.3-1.7,0.2-1.7,0.2c-8.4,3-17.6,4.5-27.2,4.8c-1.8,0.1-1.7,0.5-1.8,2c-0.1,8.5-0.3,16.5-0.5,23.8
	c0,0-0.1,0.7,0.2,1c0.2,0.2,1,0.2,1,0.2c9.6-0.6,18.7-2.7,27-6.1c1.2-0.5,1.4-1.3,1.8-2.7C153.8,156.1,153.2,143.9,153.2,143.9z
	 M149.5,100.3c3.8-2,7.3-4.4,9.5-6.7c0.5-0.5,0.7-0.9,0.7-1.4c0-0.5-0.2-1-0.7-1.8c-5.1-7.1-11.2-12.7-17.8-16.9
	c-1.9,1.3-4.9,2.5-8,3.2c5.4,6.6,10.2,14.1,14.1,22.6c0.4,0.8,0.6,1.3,0.9,1.4C148.6,100.8,149.1,100.5,149.5,100.3z M142.9,103.1
	c0.5-0.2,0.8-0.3,1-0.7c0.1-0.4-0.2-1.3-0.2-1.3c-3.7-9.1-8.2-17.4-13-23.8c-2.6,0.5-7.6,0.8-9.4,0.8c0.3,9.2,0.5,18.3,0.6,27.1
	c0,0.8,0.1,1.2,0.4,1.4c0.2,0.2,0.6,0.3,1,0.3C129.3,106.8,137.9,105,142.9,103.1z M149.4,172c0-0.2-0.2-0.2-0.2-0.2
	c-0.2,0-0.5,0.1-1.2,0.3c-10.5,3.3-19.6,4.1-25.5,4.2c-0.8,0-1,0.3-1.1,1.2l-0.5,7.8c0,0,11.8,0.3,23.9-4.8c1.7-2.2,3.1-4.8,4.3-7.7
	C149.2,172.5,149.3,172.3,149.4,172z M173.9,128.9c0-0.2-0.2,0-0.2,0c-2.8,2.8-7.9,6.6-13.9,9.6c-1.9,1-2.1,1.7-2.2,3.4
	c0.1,9.7-1.1,17.1-3.2,23.4c0,0-0.2,0.5,0.4,0.2c0.6-0.3,9.3-4.5,15.3-10.6c2-2,3.6-5,3.9-8.2C175.3,136.1,173.9,128.9,173.9,128.9z
	 M176.9,116.5c4-6.9,4-12.6,4-12.6c0-0.4,0-0.7-0.1-0.9c-1.8-7.9-6-15.4-12.3-22.3c0.1,0.7,0.1,1.3,0.1,2c0,2.4-0.5,4.9-1.7,7.5
	c-0.4,0.9-0.6,1.5-0.6,2c0,0.5,0.2,0.8,0.5,1.4C166.9,93.4,173.3,102.1,176.9,116.5z M85.6,136.1c0.6-9.8,3.3-20.1,7-29.9
	c0.1-0.2,0.1-0.4,0.1-0.5c0-0.3-0.2-0.5-0.7-0.7c-6.2-2.7-10.9-6.4-14-10.4c0,0-0.2-0.2,0-0.4c0.2-0.2,0.4,0,0.4,0
	c3.5,3.4,8.6,6.2,14.5,8.4c0.3,0.1,0.4,0.1,0.6,0.1c0.3,0,0.5-0.2,0.9-1c4-9.2,9.2-17.9,15.1-25.1c-5-1.2-10.1-3.9-11.3-6.8
	c0,0-0.2-0.3,0.1-0.5c0.3-0.1,0.5,0.2,0.5,0.2c5.5,6,21.6,5.6,21.6,5.6c6.7,0,20.6-2.3,20.6-8c0-5.1-7.4-7.8-20.8-8
	c-40.6,0-62.4,35.2-62.4,63.1c0,33.7,28.6,63.1,61.7,63.1c0-0.5-0.4-7.9-0.4-7.9c0-0.8-0.2-1.1-1.2-1.2c0,0-14.4-1.1-19.1-3.5
	c-0.2-0.1-0.1-0.3,0.2-0.3c0,0,9.7,1.7,19,1.7c0,0,1,0.1,1-1.1c0-1-0.4-23.9-0.4-23.9c-0.1-1.7-0.3-2-2-2.1
	c-10-0.5-19.8-2.6-28.3-6.2c-0.2-0.1-0.3-0.1-0.5-0.1c-0.2,0.1-0.2,0.5-0.2,0.5c-0.8,10.6,0.4,20.9,0.4,20.9c0,0.2,0,0.3-0.2,0.3
	c-0.2,0-0.2-0.2-0.2-0.2c-1.5-5.7-2.3-11.9-2.3-18.5c0-0.5,0.1-3.2,0.1-3.2c0-0.7-0.3-1.2-0.9-1.5c-4-2-7.6-4.5-10.8-7
	c0,0-0.2-0.2,0-0.4c0.2-0.1,0.3,0,0.3,0c3.3,2.1,7.1,3.9,11,5.5l0.5,0C85.5,137,85.5,136.7,85.6,136.1 M163.5,86.7
	c1.1-2.8,1.3-6.7,0.1-9.5c-1.1-2.6-4.6-5.3-4.6-5.3c-5.4-4.2-11.4-6.8-14.2-7.9c0.5,0.9,0.8,1.8,0.8,2.7c0,1.6-0.8,3.2-2.2,4.9
	c7.1,4.1,13,9,18.2,15c0,0,0.8,1,1.3,1C163.2,87.5,163.5,86.7,163.5,86.7z M178.8,133.2c0,4.3-0.4,8.6-1.2,12.6
	c3.5-6,6.3-14.8,6.3-25c0-2.9-0.2-5.8-0.7-8.8c-0.6,3-1.6,6-3.3,8.8c-1.1,1.9-1.6,3.2-1.4,4.5C178.7,129.5,178.8,133.2,178.8,133.2z
	 M151.6,172.6c-1.1,2.3-2.4,4.5-3.8,6.5c7.5-3.7,16-11,21.8-18.5c-4.5,3.6-9.6,6.7-15.4,9.1C153.1,170.3,152.1,171.6,151.6,172.6z
	 M118.6,112.5c0-1.3-0.6-2-1.8-2.1c-7.4-0.3-14.5-1.7-20.8-3.9c-0.3-0.1-0.5-0.2-0.7-0.2c-0.2,0-0.4,0.1-0.5,0.6
	c-5.8,14.6-7,30.4-7,30.4c-0.1,0.7,0.1,0.9,0.6,1.1c0,0,12.3,4.7,28.1,4.7c0,0,1.1,0,1.4-0.3c0.4-0.4,0.5-0.7,0.4-2
	C118.5,133.1,118.6,112.5,118.6,112.5z M96.6,102.5c-0.4,0.8-0.2,1.1-0.2,1.1c0.1,0.2,0.4,0.3,0.4,0.3c4.7,1.6,13.8,3.1,20.2,3.1
	c0.7,0,1.1-0.1,1.4-0.4c0.3-0.3,0.4-0.8,0.5-1.6l0,0c0.2-8.8,0.4-18,0.9-26.9c-2.7-0.1-6.1-0.5-8.4-1
	C105.4,84.6,100.5,93.1,96.6,102.5 M123.5,143c4.4-0.2,15.7-1,27.1-5.4c1.6-0.6,1.9-1.3,1.9-2.5c0-0.3,0-0.6-0.1-1
	c-1.1-8.7-3.2-17.4-6.1-26.1c-0.4-1.1-0.6-1.3-0.9-1.3c-0.2,0-0.5,0.1-0.9,0.2c-6.3,2.1-13.2,3.3-20.5,3.5c-1.4,0.1-1.8,1-1.8,2
	c0,4.5,0.1,11.6,0.1,21.2c0,2.4,0,5.7,0,8c0,0,0,0.7,0.3,1.1C122.6,143,123,143.1,123.5,143z M27.3,165.2
	C32.1,178,44,179.1,52,186.9c1.5,1.5,3,2.9,4.7,3.8l0.1-0.1c-1.9-2-4-4.2-5.3-6.8c-4.7-7.7-3-18.6-6.6-26.9c3.2,4.5,6.1,9.2,8,14.4
	c2.9,8.4,4,17.9,10.6,24.2c-7.2-2.8-15.6-2.2-22-7.3C34.9,182.9,28.6,174.6,27.3,165.2z M94.1,202c1,0,1.8-0.3,1.8-0.3
	c-6.2-1.4-11.5-2.5-16.8-7c-7-5.9-12.4-11.8-20.2-16.6c1,0.6,5.4,9.7,9.1,15.1c2.6,3.8,6.7,5.9,10.4,6.8c3.1,0.8,3.8,1.1,3.8,1.1
	s-0.5,0.3-1.7,0c0,0-10.3-2.1-15.9-2.1c-22.2,0-28-8.5-28-8.5c6.6,11.9,20.2,16.4,29.1,16.4C78.5,206.8,88,202,94.1,202z
	 M175.8,206.8c8.9,0,22.5-4.4,29.1-16.4c0,0-5.8,8.5-28,8.5c-5.6,0-15.9,2.1-15.9,2.1c-1.2,0.3-1.7,0-1.7,0s0.7-0.3,3.8-1.1
	c3.6-0.9,7.8-3,10.4-6.8c3.7-5.4,8.1-14.5,9.1-15.1c-7.8,4.8-13.2,10.8-20.2,16.6c-5.3,4.4-10.6,5.6-16.8,7c0,0,0.8,0.3,1.8,0.3
	C153.6,202,163.1,206.8,175.8,206.8z M37.6,171.2c2.2,1.9,6.7,6,7.5,7.2c0,0-0.5-1.7-1-3.8c-0.5-2.1-1.2-7.2-3.3-11.6
	c-1.6-3.5-8.4-14.7-9.7-20.9C31.1,142.1,26.2,161.5,37.6,171.2z M178,195.5c7.2-2.8,15.5-2.2,21.9-7.3c6.7-5.3,13.1-13.6,14.4-23
	c-4.8,12.8-16.7,13.8-24.8,21.6c-1.5,1.5-3,2.9-4.7,3.8l-0.1-0.1c1.8-2,4-4.2,5.3-6.8c4.7-7.7,3-18.6,6.6-26.9
	c-3.2,4.5-6.1,9.2-8,14.4C185.7,179.7,184.6,189.1,178,195.5z M160.3,209.5c-11.1-4.5-22.6-10.2-35.9-7.5c-1.5,0.3-2.7,0.6-4.1,0.6
	c-1.3,0-2.5-0.3-4-0.6c-13.4-2.7-24.9,3-36,7.5c-8.3,3-19.1,2.5-26.4-2.1c3.6,4.2,8.4,6.8,13.4,8.6c9.2,3.4,20.2,1.1,27.8-3.9
	c6.6-3.4,12.2-10.2,20.8-7.7c-8.8,3.8-16.8,9.2-24.1,16.1l4.5,3.5c0,0,8.5-11.5,23.9-18.4c15.3,6.9,23.9,18.4,23.9,18.4l4.6-3.5
	c-7.3-6.9-15.3-12.2-24.1-16.1c8.6-2.6,14.3,4.2,20.8,7.7c7.7,5,18.6,7.3,27.9,3.9c5-1.8,9.8-4.4,13.4-8.6
	C179.4,212.1,168.6,212.6,160.3,209.5z M204,171.2c11.4-9.7,6.6-29.1,6.6-29.1c-1.3,6.2-8.1,17.5-9.7,20.9
	c-2.1,4.4-2.8,9.5-3.3,11.6c-0.5,2.1-1,3.8-1,3.8C197.3,177.2,201.8,173.1,204,171.2z M24,116.1c3.4,0.3,6.7,0.6,10.1,0.9
	c2.7,0.2,4.1-0.8,4.3-3.4c0.1-1.2,0-2.1-0.5-2.9c-0.6-1-1.5-1.5-3.4-1.7c-3.2-0.4-6.5-0.7-9.7-1.1c-0.4,0.7-0.7,1.4-1.1,2.1
	c-0.2,0-0.5,0-0.7-0.1c0.2-2.1,0.5-4.2,0.7-6.3c0.2,0,0.5,0.1,0.7,0.1c0.2,0.8,0.4,1.5,0.6,2.3c3.1,0.4,6.2,0.7,9.3,1.1
	c2.3,0.3,3.7,1.1,4.6,2.7c0.7,1.3,1,2.8,0.8,4.7c-0.4,4-2.5,6.1-5.9,5.8c-3.4-0.3-6.7-0.5-10.1-0.8c-0.4,0.7-0.7,1.4-1,2.1
	c-0.2,0-0.5,0-0.7-0.1c0.2-2.6,0.4-5.1,0.6-7.7c0.2,0,0.5,0,0.7,0.1C23.6,114.7,23.8,115.4,24,116.1z M29.4,96.3
	c3.6,1.2,7.3,2.4,10.9,3.6c0.5-0.5,1-1.1,1.5-1.6c0.2,0.1,0.4,0.1,0.7,0.2c-0.6,1.8-1.2,3.6-1.8,5.4c-0.2-0.1-0.5-0.1-0.7-0.2
	c-0.1-0.8-0.1-1.5-0.2-2.3c-4.3-1.4-8.6-2.8-12.9-4.2c-0.5,0.6-1,1.2-1.5,1.8C25.3,99,25,99,24.8,98.9c0.5-1.6,1-3.2,1.6-4.9
	c4.5-1.6,9-3.2,13.5-4.7c-3-1.1-6.1-2.2-9.1-3.2c-0.5,0.5-1,1.1-1.5,1.7c-0.2-0.1-0.4-0.1-0.7-0.2c0.6-1.9,1.3-3.8,2-5.6
	c0.2,0.1,0.4,0.2,0.6,0.2c0,0.8,0,1.6,0.1,2.4c4.8,1.7,9.6,3.5,14.4,5.2c-0.1,0.4-0.3,0.8-0.4,1.2C40,92.6,34.7,94.4,29.4,96.3z
	 M53.1,66.9l3.8,2.7c-0.9,2.3-1.6,3.7-2.5,5c-3.1,4.3-7.4,5.2-11.7,2.1c-4.3-3-5.7-7.4-2-12.6c0.8-1.2,2.1-2.4,3.7-3.9l0.3-0.3
	l3.3,2.4l-0.7,1L44,62.6c-0.5,0.3-0.8,0.6-1.1,1c-3.2,4-2.2,7.7,1.7,10.5c3.5,2.5,7.2,1.9,9.5-1.3c0.4-0.6,0.5-1,0.5-1l-3.3-2.3
	l-2,1.2l-0.6-0.4l4.3-5.9l0.6,0.4L53.1,66.9z M60,65.1l-9.6-9.7l-2.1,0.8l-0.5-0.5l5.3-5.2l0.5,0.5l-0.9,2.1l9.7,9.9l3-3l-1-3.3
	l0.7-0.8l2.7,3.3c0,0-4.2,4-8.3,8.3l-0.5-0.5L60,65.1z M64.7,51.7c-3.1-4.5-2.4-9.3,2.3-12.3c4.3-2.7,8.5-1.5,11,2.6
	c2.7,4.5,2,9.4-2.3,12.2C71.8,56.8,67.5,55.7,64.7,51.7L64.7,51.7z M67.2,49.4c2.6,3.7,5.9,4.9,8.2,3.5c2.2-1.4,2.3-4.9,0-8.8
	c-2.2-3.6-5.3-5.2-8-3.4C64.4,42.5,64.6,45.8,67.2,49.4L67.2,49.4z M85.7,46.6L80.3,34L78.1,34l-0.3-0.6l7.6-3.2
	c1.8-0.7,2.9-0.8,4.1-0.4c1.1,0.4,1.8,1.1,2.2,2.1c0.8,2.1-0.3,4.2-3,5.6c3.3-1.2,5.5-0.5,6.5,1.9c0.5,1.3,0.3,2.7-0.4,3.8
	c-0.7,1.1-1.8,1.8-3.9,2.7l-6.5,2.9l-0.3-0.6L85.7,46.6z M85.8,38.3l1-0.4c1.9-0.8,2.7-2.5,1.9-4.4c-0.7-1.9-2.2-2.6-4.1-1.8
	l-1.4,0.7L85.8,38.3z M88.8,45.6l0.9-0.4c1.3-0.5,1.9-0.9,2.3-1.8c0.4-0.8,0.4-1.8,0-2.7c-0.8-2.1-2.5-2.7-4.7-1.8l-1.2,0.5
	L88.8,45.6z M101.8,35.9l-0.9,5.1l2.1,0.5l0.1,0.7l-5.5,1.3l-0.1-0.7l1.7-1.2l3.8-16.6l1.2-0.2l8.6,14.3l2,0.5l0.1,0.7l-7.1,1
	l-0.1-0.7l1.7-1.2l-2.5-4.5L101.8,35.9z M102,34.7l4.2-0.8l-2.9-5.3L102,34.7z M118.4,38.8l0.1-13.6l-2.1-0.9l0-0.7
	c3.9-0.1,7.4-0.1,7.4-0.1v0.7l-2.1,0.9l-0.2,13.9l3.9,0.1l1.6-3l1,0l-0.4,4.3c0,0-6.3-0.3-11.5-0.1l0-0.7L118.4,38.8z M146.5,43
	l2.1-2.9l1.1,0.3l-1.3,3.9h-0.4c-2.3-0.1-3.6-0.2-5.1-0.6c-4.9-1.3-7-5.1-5.9-10.1c1.2-5.2,4.9-7.7,11.1-6.2c1.5,0.3,3,1.1,4.8,2.1
	l-1.1,4l-1.1-0.2l-0.3-3.6c0,0-0.6-0.3-1.3-0.5c-5.4-1.4-8,1.2-8.9,5.3c-1,4.2,0.8,7.4,4.5,8.5C145.5,42.8,145.9,42.9,146.5,43
	L146.5,43z M177.8,56.5l11.5-5.2l3.8,3.8l-0.5,0.5l-2.2-0.7l-9.4,9.7l1.1,2.1l-0.5,0.5c-2.5-2.5-5-4.9-5-4.9l0.5-0.6l2.1,0.7l7.6-8
	L174.1,60l-0.5-0.4l3.8-13.4l-6.9,8.7l1,2l-0.5,0.5l-4.8-3.4l0.5-0.5l2.2,0.7l8.6-10.4l-1-2l0.5-0.5l4.4,3.2L177.8,56.5z
	 M191.8,68.7l-4.3,3.2l0.5,2.2l-0.5,0.4c-2.1-2.9-4.5-5.8-4.5-5.8l0.6-0.4l1.9,1.1l10.6-8.3l-0.5-2.1l0.6-0.4l4.4,5.7
	c1.5,2,1.9,3.2,2,4.6c0,1.4-0.6,2.6-1.8,3.5c-2.5,1.8-5.6,0.9-7.9-2.2L191.8,68.7z M193.2,68.7c0.8,1.1,1.4,1.5,2.1,1.7
	c1.1,0.2,2.3,0.1,3.3-0.7c1-0.7,1.6-1.6,1.7-2.5c0.1-0.9-0.1-1.6-0.8-2.5l-1-1.2l-5.9,4.6L193.2,68.7z M198.5,80.1l-5.1,0.4l0.1,2.1
	l-0.6,0.3c-1.3-2.4-2.8-4.9-2.8-4.9l0.6-0.4l1.6,1.4l17-1l0.6,1.4l-11.4,12l0.1,2.1l-0.6,0.3c-1.4-3.4-2.7-6.5-2.7-6.5l0.6-0.3
	l1.6,1.3l3.4-3.6L198.5,80.1z M199.8,80l1.9,3.8l4.3-4.2L199.8,80z M202.3,104.6l3.7,0.4l0.3,1.1l-4,0.8l-0.2-0.3
	c-1.2-2-1.7-3.2-2.1-4.6c-1.4-5,0.8-8.5,5.8-10.2c5.2-1.7,9.5,0.9,10.9,6.4c0.4,1.5,0.6,3.3,0.6,5.3l-4,1l-0.3-1.1l2.9-2
	c0-0.4-0.1-1-0.2-1.5c-1.3-4.6-4.7-6.4-9-5c-4.2,1.4-6.1,4.2-5,8.1C201.8,103.6,202,104,202.3,104.6L202.3,104.6z M217.9,116.4
	l-13.7,1l-0.7,2.8l-0.7,0.1c-0.1-4.5-0.7-8.6-0.7-8.6l0.7-0.1l1.1,2.7l13.7-1l-0.3-3.5l-3.5-1l-0.1-1l4.7-0.4c0,0,1.1,7.4,1.1,14.7
	l-4.7,0.4l-0.1-1l3.3-1.5L217.9,116.4z M154.3,38.5c2.3-5,6.9-6.8,11.8-4.2c4.6,2.3,5.6,6.6,3.3,10.8c-2.5,4.6-7.2,6.5-11.7,4.2
	C153.5,47.2,152.2,43,154.3,38.5L154.3,38.5z M157.5,39.4c-1.9,4.1-1.3,7.6,1.1,8.8c2.3,1.2,5.4-0.5,7.6-4.3c2-3.7,1.8-7.2-1.1-8.7
	C162.1,33.6,159.4,35.4,157.5,39.4z"/>
</svg>
